<svg xmlns="http://www.w3.org/2000/svg" style="display: none;">
  <symbol id="svg-arrow" viewBox="0 0 42 42">
    <path d="M35.965,0.114c-0.329-0.171-0.726-0.148-1.033,0.063L7.5,19.095V1c0-0.553-0.448-1-1-1s-1,0.447-1,1v40c0,0.553,0.448,1,1,1
    s1-0.447,1-1V22.905l27.432,18.919C35.103,41.94,35.301,42,35.5,42c0.159,0,0.319-0.038,0.465-0.114
    C36.294,41.713,36.5,41.372,36.5,41V1C36.5,0.628,36.294,0.287,35.965,0.114z"/>
  </symbol>

  <symbol id="svg-cross" viewBox="0 0 128 128">
    <g>
      <polygon points="123.5429688,11.59375 116.4765625,4.5185547 64.0019531,56.9306641 11.5595703,4.4882813 4.4882813,11.5595703 56.9272461,63.9970703 4.4570313,116.4052734 11.5244141,123.4814453 63.9985352,71.0683594 116.4423828,123.5117188 123.5126953,116.4414063 71.0732422,64.0019531"/>
    </g>
  </symbol>

  <symbol id="svg-volume-muted" viewBox="0 0 512 512">
    <g>
      <path d="M317.915,59.446c-11.041-5.908-24.371-5.262-34.788,1.683l-145.642,97.097H82.27c-14.16,0-25.795,10.932-26.958,24.795
        h-7.795C21.315,183.021,0,204.337,0,230.538v50.924c0,26.201,21.315,47.517,47.517,47.517h7.795
        c1.163,13.864,12.798,24.795,26.958,24.795h55.214l145.642,97.097c5.68,3.787,12.227,5.701,18.794,5.701
        c5.477,0,10.972-1.331,15.994-4.017c11.041-5.909,17.899-17.357,17.899-29.879V89.325
        C335.813,76.803,328.955,65.355,317.915,59.446z M55.197,302.091h-7.68c-11.374,0-20.628-9.254-20.628-20.628v-50.924
        c0-11.374,9.254-20.628,20.628-20.628h7.68V302.091z M128.111,326.885h-0.001H82.27c-0.101,0-0.184-0.082-0.184-0.184v-11.167
        V185.298c0-0.101,0.083-0.184,0.184-0.184h45.841V326.885z M308.924,422.676c0,3.783-2.585,5.576-3.696,6.171
        c-1.112,0.593-4.039,1.751-7.186-0.348l-143.042-95.364V178.865l143.042-95.364c3.146-2.099,6.073-0.943,7.186-0.348
        c1.111,0.594,3.696,2.386,3.696,6.171V422.676z"/>
    </g>
    <g>
      <path d="M471.555,256l36.901-36.901c4.726-4.726,4.726-12.388,0-17.114c-4.727-4.724-12.387-4.724-17.114,0l-36.901,36.901
        l-36.901-36.901c-4.726-4.723-12.385-4.726-17.112,0c-4.726,4.726-4.726,12.388,0,17.114L437.328,256l-36.901,36.901
        c-4.726,4.726-4.726,12.388,0,17.114c2.364,2.362,5.46,3.544,8.556,3.544s6.193-1.182,8.556-3.544l36.901-36.902l36.901,36.902
        c2.364,2.362,5.46,3.544,8.556,3.544s6.193-1.182,8.556-3.544c4.726-4.726,4.726-12.388,0-17.114L471.555,256z"/>
    </g>
  </symbol>

  <symbol id="svg-volume-high" viewBox="0 0 512 512">
    <g>
      <path d="M299.476,70.848c-10.399-5.568-22.956-4.96-32.77,1.583l-137.195,91.466H77.498c-13.339,0-24.299,10.298-25.394,23.358
        H44.76c-24.681,0-44.76,20.079-44.76,44.76v47.972c0,24.681,20.079,44.76,44.76,44.76h7.343
        c1.096,13.06,12.057,23.358,25.394,23.358h52.012l137.195,91.466c5.351,3.566,11.516,5.37,17.704,5.369
        c5.161,0,10.338-1.255,15.066-3.786c10.4-5.566,16.859-16.35,16.859-28.145V98.993C316.335,87.198,309.875,76.413,299.476,70.848z
          M51.994,299.418H44.76c-10.714-0.001-19.43-8.717-19.43-19.432v-47.972c0-10.714,8.716-19.43,19.43-19.43h7.234V299.418z
          M120.68,322.775H77.498c-0.095,0-0.174-0.077-0.174-0.174V189.4c0-0.096,0.078-0.174,0.174-0.174h43.182V322.775z
          M291.006,413.01c0,3.564-2.434,5.252-3.482,5.812c-1.047,0.56-3.802,1.65-6.768-0.327l-134.747-89.833V183.34l134.747-89.832
        c2.967-1.977,5.722-0.887,6.768-0.327c1.047,0.56,3.482,2.248,3.482,5.812V413.01z"/>
    </g>
    <g>
      <path d="M445.607,95.47c-4.452-4.452-11.668-4.452-16.12,0c-4.452,4.452-4.452,11.668,0,16.12
        c38.509,38.509,59.716,89.795,59.716,144.411c0,54.617-21.209,105.904-59.717,144.412c-4.452,4.452-4.452,11.668,0,16.119
        c2.225,2.227,5.142,3.338,8.06,3.338c2.917,0,5.835-1.113,8.06-3.338C488.421,373.717,512,316.706,512,255.999
        C512,195.294,488.421,138.283,445.607,95.47z"/>
    </g>
    <g>
      <path d="M383.011,158.067c-4.452-4.453-11.668-4.453-16.12-0.001s-4.452,11.668,0,16.12
        c21.815,21.815,33.829,50.871,33.828,81.816c0,30.944-12.014,60.001-33.829,81.816c-4.452,4.452-4.452,11.668,0,16.12
        c2.225,2.227,5.142,3.338,8.06,3.338c2.917,0,5.835-1.113,8.06-3.338c26.121-26.121,40.507-60.902,40.507-97.936
        C423.517,218.969,409.132,184.187,383.011,158.067z"/>
    </g>
  </symbol>

</svg>
