<svg xmlns="http://www.w3.org/2000/svg" style="display: none;">
  <symbol id="svg-arrow" viewBox="0 0 42 42">
    <path d="M35.965,0.114c-0.329-0.171-0.726-0.148-1.033,0.063L7.5,19.095V1c0-0.553-0.448-1-1-1s-1,0.447-1,1v40c0,0.553,0.448,1,1,1
    s1-0.447,1-1V22.905l27.432,18.919C35.103,41.94,35.301,42,35.5,42c0.159,0,0.319-0.038,0.465-0.114
    C36.294,41.713,36.5,41.372,36.5,41V1C36.5,0.628,36.294,0.287,35.965,0.114z"/>
  </symbol>

  <symbol id="svg-cross" viewBox="0 0 128 128">
    <g>
      <polygon points="123.5429688,11.59375 116.4765625,4.5185547 64.0019531,56.9306641 11.5595703,4.4882813 4.4882813,11.5595703 56.9272461,63.9970703 4.4570313,116.4052734 11.5244141,123.4814453 63.9985352,71.0683594 116.4423828,123.5117188 123.5126953,116.4414063 71.0732422,64.0019531"/>
    </g>
  </symbol>
</svg>
