<svg xmlns="http://www.w3.org/2000/svg" style="display: none;">
  <symbol id="svg-arrow" viewBox="0 0 320 320">
    <g>
      <path d="M296.07,2.188c-4.864-2.88-10.976-2.912-15.904-0.128L48.006,132.652V16.012c0-8.832-7.168-16-16-16
			c-8.832,0-16,7.168-16,16v288c0,8.832,7.168,16,16,16c8.832,0,16-7.168,16-16v-116.64l232.16,130.592
			c2.432,1.376,5.12,2.048,7.84,2.048c2.784,0,5.6-0.736,8.064-2.176c4.896-2.88,7.936-8.128,7.936-13.824v-288
			C304.006,10.316,300.966,5.068,296.07,2.188z M272.006,276.652l-207.36-116.64l207.36-116.64V276.652z"/>
    </g>
  </symbol>

  <!-- <symbol id="svg-arrow" viewBox="0 0 490.651 490.651">
    <g>
      <path d="M143.085,245.317L370.2,18.203c4.16-4.16,4.16-10.923,0-15.083s-10.923-4.16-15.083,0L120.451,237.787
        c-4.16,4.16-4.16,10.923,0,15.083l234.667,234.667c2.091,2.069,4.821,3.115,7.552,3.115c2.731,0,5.461-1.045,7.531-3.136
        c4.16-4.16,4.16-10.923,0-15.083L143.085,245.317z"/>
    </g>
  </symbol> -->

  <symbol id="svg-cross" viewBox="0 0 128 128">
    <g>
      <polygon points="123.5429688,11.59375 116.4765625,4.5185547 64.0019531,56.9306641 11.5595703,4.4882813 4.4882813,11.5595703 56.9272461,63.9970703 4.4570313,116.4052734 11.5244141,123.4814453 63.9985352,71.0683594 116.4423828,123.5117188 123.5126953,116.4414063 71.0732422,64.0019531"/>
    </g>
  </symbol>

  <symbol id="svg-volume-high" viewBox="0 0 480 480">
    <g>
      <path d="M278.944,17.577c-5.568-2.656-12.128-1.952-16.928,1.92L106.368,144.009H32c-17.632,0-32,14.368-32,32v128
        c0,17.632,14.368,32,32,32h74.368l155.616,124.512c2.912,2.304,6.464,3.488,10.016,3.488c2.368,0,4.736-0.512,6.944-1.568
        c5.536-2.688,9.056-8.288,9.056-14.432v-416C288,25.865,284.48,20.265,278.944,17.577z M96,304.009H32v-128h64V304.009z
        M256,414.697l-128-102.4V167.721l128-102.4V414.697z"/>
    </g>
    <g>
      <path d="M369.024,126.857c-6.304-6.24-16.416-6.144-22.624,0.128c-6.208,6.304-6.144,16.416,0.128,22.624
        c24.16,23.904,37.472,56,37.472,90.4c0,34.4-13.312,66.496-37.472,90.4c-6.304,6.208-6.368,16.32-0.128,22.624
        c3.136,3.168,7.264,4.736,11.36,4.736c4.064,0,8.128-1.536,11.264-4.64c30.304-29.92,46.976-70.08,46.976-113.12
        C416,196.969,399.328,156.809,369.024,126.857z"/>
    </g>
    <g>
      <path d="M414.144,81.769c-6.272-6.208-16.416-6.176-22.624,0.096c-6.208,6.272-6.176,16.416,0.096,22.624
        C427.968,140.553,448,188.681,448,240.009s-20.032,99.456-56.384,135.52c-6.272,6.208-6.304,16.352-0.096,22.624
        c3.136,3.168,7.232,4.736,11.36,4.736c4.064,0,8.128-1.536,11.264-4.64C456.608,356.137,480,299.945,480,240.009
        C480,180.073,456.608,123.881,414.144,81.769z"/>
    </g>
  </symbol>

  <symbol id="svg-volume-mute" viewBox="0 0 448.023 448.023">
    <g>
      <path d="M342.94,1.591c-5.6-2.688-12.128-1.92-16.928,1.92l-127.68,102.08c-6.912,5.504-8,15.584-2.496,22.496
        c5.536,6.944,15.584,8.064,22.496,2.528l101.664-81.312v196.48c0,8.864,7.168,16,16,16c8.832,0,16-7.168,16-16V16.023
        C351.996,9.879,348.476,4.279,342.94,1.591z"/>
    </g>
    <g>
      <path d="M443.324,420.727l-95.968-95.968l-0.032-0.032l-160-160l-0.032-0.032l-31.968-31.968l-0.032-0.032l-127.968-128
        c-6.24-6.24-16.384-6.24-22.624,0c-6.24,6.24-6.24,16.384,0,22.624l100.672,100.704h-9.376c-17.952,0-32,14.048-32,32v128
        c0,17.952,14.048,32,32,32h74.368L325.98,444.535c2.912,2.304,6.464,3.488,10.016,3.488c2.336,0,4.704-0.512,6.944-1.568
        c5.536-2.688,9.056-8.288,9.056-14.432v-57.376l68.672,68.672c3.136,3.136,7.232,4.704,11.328,4.704s8.192-1.568,11.328-4.672
        C449.564,437.111,449.564,426.967,443.324,420.727z M159.996,288.023h-64v-128h41.376l22.624,22.624V288.023z M319.996,398.711
        l-128-102.4v-81.664l128,128V398.711z"/>
    </g>
  </symbol>

  <symbol id="svg-envelope" viewBox="0 0 512 512">
    <g>
      <path d="M458.667,85.333H53.333C23.936,85.333,0,109.269,0,138.667v234.667c0,29.397,23.936,53.333,53.333,53.333h405.333
        c29.397,0,53.333-23.936,53.333-53.333V138.667C512,109.269,488.064,85.333,458.667,85.333z M490.667,373.333
        c0,17.643-14.357,32-32,32H53.333c-17.643,0-32-14.357-32-32V138.667c0-17.643,14.357-32,32-32h405.333c17.643,0,32,14.357,32,32
        V373.333z"/>
    </g>
    <g>
      <path d="M467.456,132.651c-3.307-4.864-9.941-6.08-14.827-2.773L277.675,249.579c-13.184,9.003-30.208,9.003-43.371,0
        L59.349,129.877c-4.885-3.349-11.52-2.091-14.827,2.773c-3.307,4.864-2.069,11.499,2.795,14.827l174.955,119.701
        c10.24,7.019,21.995,10.517,33.728,10.517s23.488-3.499,33.728-10.517l174.955-119.701
        C469.547,144.149,470.784,137.515,467.456,132.651z"/>
    </g>
    <g>
      <path d="M189.525,259.819c-3.776-4.501-10.517-5.12-15.04-1.365l-128,106.667c-4.523,3.776-5.141,10.517-1.365,15.04
        c2.112,2.539,5.141,3.84,8.213,3.84c2.411,0,4.843-0.811,6.827-2.475l128-106.667
        C192.683,271.083,193.301,264.341,189.525,259.819z"/>
    </g>
    <g>
      <path d="M465.515,365.12l-128-106.667c-4.544-3.755-11.264-3.136-15.04,1.365c-3.776,4.544-3.157,11.264,1.365,15.04l128,106.667
        c2.005,1.664,4.416,2.475,6.827,2.475c3.051,0,6.08-1.301,8.213-3.84C470.656,375.616,470.037,368.896,465.515,365.12z"/>
    </g>
  </symbol>

  <symbol id="svg-envelope-open" viewBox="0 0 512 512">
	<g>
		<path d="M467.456,185.776c-3.328-4.843-9.941-6.08-14.827-2.773L277.675,302.704c-13.184,9.003-30.208,9.003-43.371,0
			L59.349,183.003c-4.885-3.328-11.52-2.091-14.827,2.773c-3.307,4.864-2.069,11.499,2.795,14.827l174.955,119.701
			c10.24,7.019,21.995,10.517,33.728,10.517s23.488-3.499,33.728-10.517l174.955-119.701
			C469.547,197.275,470.784,190.64,467.456,185.776z"/>
	</g>
	<g>
		<path d="M487.659,148.912L290.923,21.445c-20.672-14.144-49.408-13.995-69.632-0.149L24.341,148.891
			C9.088,158.768,0,175.493,0,193.669v254.123c0,29.397,23.936,53.333,53.333,53.333h405.333c29.397,0,53.333-23.915,53.333-53.333
			V193.669C512,175.493,502.912,158.768,487.659,148.912z M490.667,447.792c0,17.643-14.357,32-32,32H53.333
			c-17.643,0-32-14.357-32-32V193.669c0-10.901,5.461-20.949,14.613-26.859L233.109,39.045c6.784-4.629,14.699-7.083,22.891-7.083
			s16.107,2.453,23.104,7.232l196.949,127.616c9.152,5.931,14.613,15.957,14.613,26.859V447.792z"/>
	</g>
	<g>
		<path d="M189.525,334.277c-3.776-4.523-10.496-5.141-15.04-1.365l-128,106.667c-4.523,3.776-5.141,10.517-1.365,15.04
			c2.112,2.539,5.141,3.84,8.213,3.84c2.411,0,4.843-0.811,6.827-2.475l128-106.667C192.683,345.541,193.301,338.8,189.525,334.277z
			"/>
	</g>
	<g>
		<path d="M465.515,439.579l-128-106.667c-4.565-3.776-11.285-3.157-15.04,1.365c-3.776,4.544-3.157,11.264,1.365,15.04l128,106.667
			c2.005,1.664,4.416,2.475,6.827,2.475c3.051,0,6.08-1.301,8.213-3.84C470.656,450.075,470.037,443.355,465.515,439.579z"/>
	</g>
</symbol>
</svg>
